<svg id="online-payment" xmlns="http://www.w3.org/2000/svg" width="39.997" height="39.997" viewBox="0 0 39.997 39.997">
  <path id="Path_363" data-name="Path 363" d="M0,0H40V40H0Z" fill="rgba(255,255,255,0)" fill-rule="evenodd"/>
  <g id="Group_44" data-name="Group 44" transform="translate(5.622 9.83)">
    <path id="Path_364" data-name="Path 364" d="M8,17H33.948v8.416H8Z" transform="translate(-6.597 -14.195)" fill="#fff"/>
    <path id="Path_365" data-name="Path 365" d="M9.38,13H31.373a3.387,3.387,0,0,1,3.38,3.387V29.95a3.387,3.387,0,0,1-3.38,3.387H9.38A3.387,3.387,0,0,1,6,29.95V16.387A3.387,3.387,0,0,1,9.38,13Zm.842,8.472a.849.849,0,1,0,0,1.7H15.3a.849.849,0,1,0,0-1.7ZM7.7,16.387v3.394H33.063V16.387H7.7Z" transform="translate(-6 -13)" fill="#00b3df"/>
  </g>
</svg>
