<svg xmlns="http://www.w3.org/2000/svg" width="40" height="40" viewBox="0 0 40 40">
    <g fill="none">
        <path d="M0 0H40V40H0z"/>
        <g>
            <path fill="#FFF" d="M1.25 2.5H24.375V10H1.25z" transform="translate(3.75 10)"/>
            <path fill="#00B3DF" d="M3.013 0h19.6c1.664.003 3.012 1.354 3.012 3.019v12.087c0 1.665-1.348 3.016-3.012 3.019h-19.6C1.347 18.122 0 16.771 0 15.106V3.02C0 1.354 1.348.003 3.013 0zm.75 7.55c-.418 0-.757.339-.757.756 0 .418.339.757.757.757h4.524c.418 0 .757-.34.757-.757s-.339-.756-.757-.756H3.763zm-2.25-4.531v3.025h22.606V3.019H1.5h.012z" transform="translate(3.75 10)"/>
            <path fill="#FABB24" d="M26.769 8.856c3.64.58 6.329 3.707 6.356 7.394 0 3.719-2.75 6.8-6.356 7.394 2.73-1.458 4.44-4.298 4.45-7.394 0-3.188-1.8-5.963-4.45-7.394zm-4.144-.106c2.007-.018 3.939.762 5.37 2.169 1.431 1.406 2.245 3.324 2.261 5.331 0 4.144-3.419 7.5-7.625 7.5-2.007.018-3.938-.762-5.37-2.169-1.431-1.406-2.244-3.324-2.261-5.331 0-4.144 3.419-7.5 7.631-7.5h-.006z" transform="translate(3.75 10)"/>
            <path fill="#FFF" d="M23.587 19.063L23.587 13.438 21.675 13.438 20.725 15.313 21.675 15.313 21.675 19.063z" transform="translate(3.75 10)"/>
        </g>
    </g>
</svg>
