<svg xmlns="http://www.w3.org/2000/svg" width="40" height="40" viewBox="0 0 40 40">
  <g id="google-pay-new" transform="translate(-10344 18396)">
    <rect id="Rectangle_2623" data-name="Rectangle 2623" width="40" height="40" transform="translate(10344 -18396)" fill="none"/>
    <g id="google-pay-icon-new" transform="translate(10173.3 -18556.639)">
      <path id="Base_1_" d="M200.062,170H181.338A10.67,10.67,0,0,0,170.7,180.638h0a10.67,10.67,0,0,0,10.638,10.638h18.723A10.67,10.67,0,0,0,210.7,180.638h0A10.67,10.67,0,0,0,200.062,170Z" transform="translate(0 0)" fill="#fff"/>
      <path id="Outline" d="M200.062,170.862a9.651,9.651,0,0,1,3.793.771,9.863,9.863,0,0,1,5.213,5.213,9.71,9.71,0,0,1,0,7.585,9.863,9.863,0,0,1-5.213,5.213,9.651,9.651,0,0,1-3.793.771H181.338a9.651,9.651,0,0,1-3.793-.771,9.863,9.863,0,0,1-5.213-5.213,9.71,9.71,0,0,1,0-7.585,9.863,9.863,0,0,1,5.213-5.213,9.651,9.651,0,0,1,3.793-.771h18.723m0-.862H181.338A10.67,10.67,0,0,0,170.7,180.638h0a10.67,10.67,0,0,0,10.638,10.638h18.723A10.67,10.67,0,0,0,210.7,180.638h0A10.67,10.67,0,0,0,200.062,170Z" transform="translate(0 0)" fill="#3c4043"/>
      <g id="G_Pay_Lockup_1_" transform="translate(176.79 176.085)">
        <g id="Pay_Typeface_3_" transform="translate(11.963 0.58)">
          <path id="Letter_p_3_" d="M511.121,300.029v3.218H510.1V295.3h2.707a2.442,2.442,0,0,1,1.75.686,2.291,2.291,0,0,1,0,3.362,2.437,2.437,0,0,1-1.75.676h-1.686Zm0-3.75v2.771h1.707a1.363,1.363,0,0,0,1.011-.41,1.339,1.339,0,0,0,.41-.973,1.417,1.417,0,0,0-1.42-1.383h-1.707Z" transform="translate(-510.1 -295.3)" fill="#3c4043"/>
          <path id="Letter_a_3_" d="M615.672,339.1a2.526,2.526,0,0,1,1.787.606,2.152,2.152,0,0,1,.654,1.66v3.351h-.973v-.755H617.1a1.943,1.943,0,0,1-1.686.931,2.189,2.189,0,0,1-1.505-.532,1.7,1.7,0,0,1-.606-1.33,1.606,1.606,0,0,1,.638-1.34,2.678,2.678,0,0,1,1.7-.5,2.975,2.975,0,0,1,1.495.335v-.234a1.159,1.159,0,0,0-.42-.9,1.441,1.441,0,0,0-.989-.372,1.552,1.552,0,0,0-1.351.723l-.9-.564A2.5,2.5,0,0,1,615.672,339.1Zm-1.319,3.947a.8.8,0,0,0,.341.665,1.25,1.25,0,0,0,.793.266,1.62,1.62,0,0,0,1.149-.479,1.5,1.5,0,0,0,.505-1.122,2.1,2.1,0,0,0-1.33-.378,1.745,1.745,0,0,0-1.037.3A.909.909,0,0,0,614.353,343.047Z" transform="translate(-607.811 -336.77)" fill="#3c4043"/>
          <path id="Letter_y_3_" d="M711.436,342.4l-3.4,7.83h-1.053l1.266-2.739L706,342.4h1.112l1.617,3.9h.021l1.574-3.9Z" transform="translate(-695.58 -339.895)" fill="#3c4043"/>
        </g>
        <g id="G_Mark_1_" transform="translate(0 0)">
          <path id="Blue_500" d="M375.216,354.948a5.378,5.378,0,0,0-.085-.958H370.85v1.755h2.465a2.112,2.112,0,0,1-.915,1.414V358.3h1.468A4.461,4.461,0,0,0,375.216,354.948Z" transform="translate(-366.294 -350.288)" fill="#4285f4"/>
          <path id="Green_500_1_" d="M299.932,387.874a2.761,2.761,0,0,1-4.109-1.444H294.31V387.6a4.557,4.557,0,0,0,4.072,2.51,4.346,4.346,0,0,0,3.018-1.1Z" transform="translate(-293.825 -381.003)" fill="#34a853"/>
          <path id="Yellow_500_1_" d="M287.056,333.626a2.748,2.748,0,0,1,.143-.872V331.58h-1.514a4.563,4.563,0,0,0,0,4.093L287.2,334.5A2.748,2.748,0,0,1,287.056,333.626Z" transform="translate(-285.2 -329.07)" fill="#fabb05"/>
          <path id="Red_500" d="M298.382,286.2a2.476,2.476,0,0,1,1.748.684l1.3-1.3a4.378,4.378,0,0,0-3.049-1.187,4.558,4.558,0,0,0-4.072,2.51l1.514,1.175A2.726,2.726,0,0,1,298.382,286.2Z" transform="translate(-293.825 -284.4)" fill="#e94235"/>
        </g>
      </g>
    </g>
  </g>
</svg>
